# File created by Blade
# Date/Time:  Thu Jan 22 19:24:19 2015
# Frame Rate: 120.000 fps
#------------------------------------------------------
:FULLY-SPECIFIED
:DEGREES
2648
root 5.390718 32.291133 -3.936864 7.928625 11.581003 5.686924
RightUpLeg -17.613071 -0.791898 7.154227
RightLeg 28.098178 -0.000000 -0.000000
RightFoot -21.954974 -14.401341 -4.232723
RightToeBase 3.280921 -0.000000 -0.000000
LeftUpLeg 1.430658 -14.688914 -17.657336
LeftLeg -3.103926 -0.000000 0.000000
LeftFoot -5.053593 1.380541 -5.542538
LeftToeBase 4.183637 -0.000000 -0.000000
Spine -11.061724 -5.081065 24.432059
RightShoulder -17.165019 -18.298121 -3.055545
RightArm 19.802019 -3.570841 66.404187
RightForeArm -7.493571 0.000000 16.723363
RightHand 13.566792 -0.000000 2.777712
RightHandThumb1 -24.326973 -0.000000 -32.862282
LeftShoulder -19.248292 -8.142250 49.884469
LeftArm 21.622786 -39.716726 -11.931556
LeftForeArm 11.843116 0.000000 9.990150
LeftHand 1.755158 0.000000 3.252497
LeftHandThumb1 -26.253704 0.000000 33.147579
Head 1.285440 -10.119667 6.487506
2649
root 5.379157 32.295114 -3.929793 7.943779 11.686130 5.669813
RightUpLeg -17.559232 -0.793476 7.196200
RightLeg 27.976563 -0.000000 -0.000000
RightFoot -21.862986 -14.463360 -4.306363
RightToeBase 3.204154 -0.000000 -0.000000
LeftUpLeg 1.443715 -14.787937 -17.605749
LeftLeg -3.118135 -0.000000 0.000000
LeftFoot -5.038574 1.399710 -5.513401
LeftToeBase 4.141864 -0.000000 -0.000000
Spine -11.090120 -5.076314 24.276763
RightShoulder -17.210961 -18.310076 -3.119140
RightArm 19.699908 -3.602785 66.402891
RightForeArm -7.352047 -0.000000 16.717141
RightHand 13.577361 -0.000000 2.689066
RightHandThumb1 -24.326973 -0.000000 -32.862282
LeftShoulder -19.259866 -7.770903 49.641367
LeftArm 21.582057 -39.983906 -11.981499
LeftForeArm 11.751179 -0.000000 9.906506
LeftHand 1.616014 -0.000000 3.112054
LeftHandThumb1 -26.253704 0.000000 33.147579
Head 1.251088 -10.133777 6.273598
2650
root 5.365984 32.299429 -3.921975 7.957733 11.796243 5.657350
RightUpLeg -17.508821 -0.830392 7.237662
RightLeg 27.860893 -0.000000 -0.000000
RightFoot -21.787469 -14.478724 -4.360564
RightToeBase 3.111239 -0.000000 -0.000000
LeftUpLeg 1.466790 -14.881308 -17.557513
LeftLeg -3.141914 -0.000000 0.000000
LeftFoot -5.018887 1.406411 -5.534842
LeftToeBase 4.231115 -0.000000 -0.000000
Spine -11.132984 -5.085564 24.109080
RightShoulder -17.228878 -18.367093 -3.167853
RightArm 19.614179 -3.584312 66.424435
RightForeArm -7.312846 0.000000 16.739549
RightHand 13.600450 -0.000000 2.636469
RightHandThumb1 -24.326973 -0.000000 -32.862282
LeftShoulder -19.346498 -8.775702 50.058528
LeftArm 21.087805 -38.805567 -12.031610
LeftForeArm 11.726358 -0.000000 9.919313
LeftHand 1.728763 -0.000000 3.014200
LeftHandThumb1 -26.253704 0.000000 33.147579
Head 1.265121 -10.151185 6.120974
2651
root 5.352888 32.303746 -3.915130 7.993395 11.893589 5.639205
RightUpLeg -17.485380 -0.861092 7.282605
RightLeg 27.752065 -0.000000 -0.000000
RightFoot -21.717209 -14.474709 -4.387207
RightToeBase 3.094924 -0.000000 -0.000000
LeftUpLeg 1.461925 -14.949376 -17.502742
LeftLeg -3.163754 -0.000000 0.000000
LeftFoot -5.003891 1.395385 -5.540292
LeftToeBase 4.450189 -0.000000 -0.000000
Spine -11.187210 -5.063825 23.966558
RightShoulder -17.274667 -18.359235 -3.239587
RightArm 19.496094 -3.655590 66.408910
RightForeArm -7.330534 0.000000 16.746579
RightHand 13.518333 -0.000000 2.604189
RightHandThumb1 -24.326973 -0.000000 -32.862282
LeftShoulder -19.316814 -7.682752 49.420133
LeftArm 21.322201 -39.704856 -12.024904
LeftForeArm 11.543012 -0.000000 9.661216
LeftHand 1.753054 -0.000000 3.302744
LeftHandThumb1 -26.253704 0.000000 33.147579
Head 1.248990 -10.125975 5.914662
2652
root 5.340307 32.307615 -3.907031 8.005468 11.985648 5.621018
RightUpLeg -17.437810 -0.905703 7.323376
RightLeg 27.650948 -0.000000 -0.000000
RightFoot -21.682591 -14.434174 -4.364573
RightToeBase 3.110950 -0.000000 -0.000000
LeftUpLeg 1.479008 -14.977146 -17.455457
LeftLeg -3.182812 -0.000000 0.000000
LeftFoot -4.961800 1.380857 -5.456673
LeftToeBase 4.501997 -0.000000 -0.000000
Spine -11.222270 -5.056874 23.830397
RightShoulder -17.308210 -18.452615 -3.309373
RightArm 19.448304 -3.563838 66.486021
RightForeArm -7.320974 -0.000000 16.792276
RightHand 13.533028 -0.000000 2.654413
RightHandThumb1 -24.326973 -0.000000 -32.862282
LeftShoulder -19.316013 -7.736574 49.350580
LeftArm 21.091236 -39.591393 -12.044588
LeftForeArm 11.453760 -0.000000 9.642840
LeftHand 1.706513 0.000000 3.009463
LeftHandThumb1 -26.253704 0.000000 33.147579
Head 1.249575 -10.115777 5.686774
2653
root 5.326443 32.311119 -3.899671 8.017784 12.079555 5.611898
RightUpLeg -17.403567 -0.976861 7.362172
RightLeg 27.568667 -0.000000 -0.000000
RightFoot -21.635628 -14.406198 -4.367494
RightToeBase 3.038251 -0.000000 -0.000000
LeftUpLeg 1.495021 -15.026429 -17.415747
LeftLeg -3.199812 -0.000000 0.000000
LeftFoot -4.933614 1.373951 -5.421066
LeftToeBase 4.645237 -0.000000 -0.000000
Spine -11.238681 -5.052715 23.645952
RightShoulder -17.352431 -18.405653 -3.344075
RightArm 19.334245 -3.539222 66.504213
RightForeArm -7.389260 -0.000000 16.779803
RightHand 13.481018 -0.000000 2.775046
RightHandThumb1 -24.326973 -0.000000 -32.862282
LeftShoulder -19.464849 -8.748295 49.834166
LeftArm 20.742913 -38.530374 -12.291256
LeftForeArm 11.884396 -0.000000 9.623721
LeftHand 1.744929 0.000000 3.368184
LeftHandThumb1 -26.253704 0.000000 33.147579
Head 1.252448 -10.189560 5.524865
2654
root 5.313544 32.313712 -3.893425 8.032300 12.156999 5.605586
RightUpLeg -17.382833 -1.041629 7.390620
RightLeg 27.515992 -0.000000 -0.000000
RightFoot -21.629522 -14.335061 -4.327149
RightToeBase 3.044722 -0.000000 -0.000000
LeftUpLeg 1.507310 -15.059252 -17.384218
LeftLeg -3.220080 -0.000000 0.000000
LeftFoot -4.892991 1.374176 -5.336910
LeftToeBase 4.732493 -0.000000 -0.000000
Spine -11.255560 -5.038727 23.479932
RightShoulder -17.388297 -18.454325 -3.379352
RightArm 19.294794 -3.586898 66.496318
RightForeArm -7.370826 -0.000000 16.781668
RightHand 13.509476 0.000000 2.802752
RightHandThumb1 -24.326973 -0.000000 -32.862282
LeftShoulder -19.558565 -9.098183 49.941985
LeftArm 20.556627 -38.228917 -12.455781
LeftForeArm 11.842437 -0.000000 9.670278
LeftHand 1.585198 -0.000000 3.088550
LeftHandThumb1 -26.253704 0.000000 33.147579
Head 1.230816 -10.194263 5.344174
2655
root 5.300492 32.315588 -3.886796 8.045109 12.225381 5.601302
RightUpLeg -17.353238 -1.081937 7.420944
RightLeg 27.448354 -0.000000 -0.000000
RightFoot -21.615198 -14.327468 -4.300038
RightToeBase 3.027684 -0.000000 -0.000000
LeftUpLeg 1.519677 -15.086628 -17.359286
LeftLeg -3.242710 -0.000000 0.000000
LeftFoot -4.850751 1.386783 -5.200890
LeftToeBase 4.784297 -0.000000 -0.000000
Spine -11.265924 -5.041210 23.311424
RightShoulder -17.414182 -18.518914 -3.409581
RightArm 19.288037 -3.629683 66.496154
RightForeArm -7.263668 0.000000 16.797000
RightHand 13.504732 -0.000000 2.645415
RightHandThumb1 -24.326973 -0.000000 -32.862282
LeftShoulder -19.572736 -8.978094 49.821723
LeftArm 20.393593 -38.274380 -12.462298
LeftForeArm 11.761252 -0.000000 9.598674
LeftHand 1.618134 -0.000000 3.136164
LeftHandThumb1 -26.253704 0.000000 33.147579
Head 1.217740 -10.161310 5.172445
2656
root 5.286593 32.315577 -3.880779 8.058846 12.279310 5.607300
RightUpLeg -17.358281 -1.144787 7.440179
RightLeg 27.451719 -0.000000 -0.000000
RightFoot -21.628258 -14.259004 -4.269024
RightToeBase 3.075629 -0.000000 -0.000000
LeftUpLeg 1.529902 -15.094643 -17.346766
LeftLeg -3.267157 -0.000000 0.000000
LeftFoot -4.791566 1.372446 -4.975120
LeftToeBase 4.832264 -0.000000 -0.000000
Spine -11.253166 -5.019897 23.120186
RightShoulder -17.455187 -18.490025 -3.459983
RightArm 19.216585 -3.676142 66.516630
RightForeArm -7.266829 -0.000000 16.788413
RightHand 13.510505 -0.000000 2.684755
RightHandThumb1 -24.326973 -0.000000 -32.862282
LeftShoulder -19.574433 -8.868844 49.689963
LeftArm 20.227633 -38.287153 -12.425455
LeftForeArm 11.654574 0.000000 9.471085
LeftHand 1.732395 0.000000 3.155101
LeftHandThumb1 -26.253704 0.000000 33.147579
Head 1.206060 -10.324876 4.956630
2657
root 5.271467 32.315038 -3.874716 8.063448 12.330166 5.611024
RightUpLeg -17.358610 -1.205718 7.462952
RightLeg 27.451600 -0.000000 -0.000000
RightFoot -21.633203 -14.304414 -4.429365
RightToeBase 3.265893 -0.000000 -0.000000
LeftUpLeg 1.544725 -15.112102 -17.338541
LeftLeg -3.274220 -0.000000 0.000000
LeftFoot -4.765448 1.384180 -4.797951
LeftToeBase 4.830091 -0.000000 -0.000000
Spine -11.238792 -5.013867 22.929886
RightShoulder -17.513461 -18.574449 -3.462807
RightArm 19.286337 -3.728705 66.512686
RightForeArm -7.164862 -0.000000 16.746503
RightHand 13.636535 -0.000000 2.831652
RightHandThumb1 -24.326973 -0.000000 -32.862282
LeftShoulder -19.574621 -8.834013 49.609286
LeftArm 19.989309 -38.290444 -12.392230
LeftForeArm 11.588583 0.000000 9.472279
LeftHand 1.618047 -0.000000 3.097543
LeftHandThumb1 -26.253704 0.000000 33.147579
Head 1.183041 -10.337621 4.792572
2658
root 5.256641 32.314367 -3.868865 8.068397 12.365048 5.617828
RightUpLeg -17.368601 -1.261350 7.480327
RightLeg 27.479314 -0.000000 -0.000000
RightFoot -21.632715 -14.148456 -4.267154
RightToeBase 3.069201 -0.000000 -0.000000
LeftUpLeg 1.560347 -15.140399 -17.323034
LeftLeg -3.304683 -0.000000 0.000000
LeftFoot -4.733379 1.392226 -4.651444
LeftToeBase 4.892333 -0.000000 -0.000000
Spine -11.212699 -5.011437 22.751663
RightShoulder -17.536778 -18.605573 -3.510002
RightArm 19.279991 -3.756973 66.560854
RightForeArm -7.172759 -0.000000 16.787522
RightHand 13.537590 0.000000 2.701251
RightHandThumb1 -24.326973 -0.000000 -32.862282
LeftShoulder -19.577239 -8.695388 49.461188
LeftArm 19.822615 -38.405149 -12.356271
LeftForeArm 11.559643 -0.000000 9.346336
LeftHand 1.726076 0.000000 3.182812
LeftHandThumb1 -26.253704 0.000000 33.147579
Head 1.133250 -10.277745 4.647415
2659
root 5.241291 32.312025 -3.862444 8.068212 12.383394 5.633713
RightUpLeg -17.371973 -1.278929 7.493359
RightLeg 27.505291 -0.000000 -0.000000
RightFoot -21.646320 -14.130084 -4.235189
RightToeBase 3.050971 -0.000000 -0.000000
LeftUpLeg 1.582394 -15.180219 -17.324876
LeftLeg -3.326979 -0.000000 0.000000
LeftFoot -4.733690 1.444174 -4.580522
LeftToeBase 5.019012 -0.000000 -0.000000
Spine -11.182509 -5.018415 22.550390
RightShoulder -17.512726 -18.554447 -3.597132
RightArm 19.192616 -3.792947 66.645335
RightForeArm -7.172842 -0.000000 16.766204
RightHand 13.589304 -0.000000 2.783407
RightHandThumb1 -24.326973 -0.000000 -32.862282
LeftShoulder -19.588025 -8.697670 49.427412
LeftArm 19.566775 -38.248215 -12.315479
LeftForeArm 11.549013 -0.000000 9.248103
LeftHand 1.921014 -0.000000 3.333913
LeftHandThumb1 -26.253704 0.000000 33.147579
Head 1.139405 -10.313362 4.453148
